<svg width="20" height="20" viewBox="0 0 20 20" fill="none" xmlns="http://www.w3.org/2000/svg">
<path fill-rule="evenodd" clip-rule="evenodd" d="M10 0C4.47715 0 0 4.47715 0 10C0 15.5228 4.47715 20 10 20H15C16.5531 20 17.3297 20 17.9423 19.7463C18.759 19.408 19.408 18.759 19.7463 17.9423C20 17.3297 20 16.5531 20 15V10C20 4.47715 15.5228 0 10 0ZM5.55556 8.88889C5.55556 8.27524 6.05302 7.77778 6.66667 7.77778H13.3333C13.947 7.77778 14.4444 8.27524 14.4444 8.88889C14.4444 9.50254 13.947 10 13.3333 10H6.66667C6.05302 10 5.55556 9.50254 5.55556 8.88889ZM8.88889 13.3333C8.88889 12.7197 9.38635 12.2222 10 12.2222H13.3333C13.947 12.2222 14.4444 12.7197 14.4444 13.3333C14.4444 13.947 13.947 14.4444 13.3333 14.4444H10C9.38635 14.4444 8.88889 13.947 8.88889 13.3333Z" fill="#696969"/>
</svg>
