<svg width="135" height="34" viewBox="0 0 135 34" fill="none" xmlns="http://www.w3.org/2000/svg">
<path d="M74.9413 0.00183888C74.3856 -0.0189492 73.8367 0.136543 73.365 0.448433C72.8934 0.760322 72.5204 1.21434 72.2941 1.75226C72.0678 2.29017 71.9984 2.88747 72.0947 3.46747C72.1911 4.04747 72.4489 4.58372 72.835 5.00748C73.2212 5.43123 73.718 5.72316 74.2619 5.84576C74.8058 5.96836 75.3718 5.91604 75.8874 5.69557C76.403 5.4751 76.8447 5.09653 77.1557 4.60838C77.4667 4.12022 77.633 3.54477 77.6331 2.95586C77.6549 2.57066 77.6009 2.18486 77.4746 1.8229C77.3483 1.46093 77.1525 1.13067 76.8995 0.853004C76.6465 0.575339 76.3418 0.356297 76.0047 0.20978C75.6677 0.0632627 75.3055 -0.00751176 74.9413 0.00183888Z" fill="#57CC99"/>
<path d="M101.048 8.21112V26.6877H96.0558V12.7091H87.9838V20.3268C87.9838 21.867 88.6002 22.4905 89.6698 22.4573C90.4846 22.4045 91.2799 22.1703 92.0036 21.7701L93.0464 25.6507C91.6597 26.4795 90.0952 26.9168 88.5029 26.9209C85.3882 26.9209 83.0219 25.0321 83.0219 21.2202V12.6747H77.439V26.6791H72.4563V8.2013H77.4506V9.02483H83.0277V3.95125H87.9838V9.03464H96.058V8.21112H101.048Z" fill="#57CC99"/>
<path d="M98.5533 0.00183888C97.9976 -0.0189492 97.4488 0.136543 96.9771 0.448433C96.5055 0.760322 96.1326 1.21434 95.9062 1.75226C95.6799 2.29017 95.6104 2.88747 95.7068 3.46747C95.8032 4.04747 96.061 4.58372 96.4471 5.00748C96.8333 5.43123 97.3301 5.72316 97.8739 5.84576C98.4178 5.96836 98.9839 5.91604 99.4995 5.69557C100.015 5.4751 100.457 5.09653 100.768 4.60838C101.079 4.12022 101.245 3.54477 101.245 2.95586C101.267 2.57062 101.213 2.18472 101.087 1.82267C100.961 1.46062 100.765 1.13033 100.512 0.852629C100.259 0.574924 99.9541 0.355858 99.617 0.209405C99.2798 0.0629528 98.9176 -0.00769794 98.5533 0.00183888Z" fill="#57CC99"/>
<path d="M17.3504 21.6742V26.6815H12.3561V1.20332H17.3504V15.2175L23.7375 8.24418H29.4131L23.0272 15.3537L29.704 26.679H23.8035L19.5879 19.173L17.3504 21.6742Z" fill="#06335B"/>
<path d="M41.6054 24.5228C40.9267 25.3406 40.0798 25.9827 39.13 26.3995C38.1802 26.8163 37.1528 26.9967 36.1268 26.927C32.3979 26.927 30.1301 24.5228 30.1301 21.1589C30.1301 17.6943 32.4929 15.6288 36.7757 15.5944H41.5753V15.2495C41.5753 13.2859 40.3435 12.1703 37.9402 12.1703C36.1115 12.2441 34.3288 12.7983 32.7524 13.7829L31.2055 10.1318C33.6184 8.73502 36.3248 8.00483 39.0746 8.00861C43.7456 8.00861 46.4363 10.4804 46.4687 14.6359L46.5012 26.6901H41.6031L41.6054 24.5228ZM41.5729 20.3672V18.719H37.6494C35.7363 18.719 34.7965 19.3327 34.7965 20.814C34.7965 22.2229 35.8394 23.1458 37.5219 23.1458C39.6274 23.1482 41.2763 21.9467 41.5718 20.3672H41.5729Z" fill="#06335B"/>
<path d="M69.1414 17.5519C69.1414 23.1482 65.9305 26.8926 61.0301 26.8926C59.9428 26.9388 58.8616 26.6994 57.8829 26.1958C56.9041 25.6921 56.0582 24.9399 55.4205 24.0061V33.3468H50.4308V8.21233H55.4251V10.9246C56.0454 9.99659 56.8741 9.24666 57.8365 8.74252C58.7988 8.23838 59.8644 7.99585 60.9373 8.03683C65.8343 8.03805 69.1414 11.8585 69.1414 17.5519ZM64.0822 17.3801C64.0822 14.426 62.3325 12.2967 59.7693 12.2967C57.2061 12.2967 55.4239 14.3905 55.4239 17.3801C55.4239 20.436 57.2061 22.4953 59.7693 22.4953C62.3325 22.4953 64.0822 20.4016 64.0822 17.3801Z" fill="#06335B"/>
<path d="M111.749 7.48942V9.02966H115.866V12.7041H111.749V26.6791H106.789V12.709H104.453V9.0346H106.787V7.28328C106.787 3.1621 109.705 0.964078 113.208 0.964078C114.817 0.938182 116.401 1.39009 117.781 2.26865L115.996 6.11856C115.366 5.61883 114.603 5.34265 113.815 5.32942C113.54 5.30105 113.261 5.33723 113 5.43533C112.739 5.53344 112.502 5.69114 112.305 5.89721C112.108 6.10328 111.956 6.3527 111.86 6.62785C111.764 6.903 111.726 7.19712 111.749 7.48942Z" fill="#06335B"/>
<path d="M127.346 28.7469C126.115 32.0188 123.973 33.5897 120.959 33.5897C119.227 33.6341 117.54 32.998 116.223 31.804L118.331 27.9909C118.943 28.6129 119.753 28.9687 120.601 28.9875C121.098 28.9963 121.586 28.8428 121.998 28.5477C122.41 28.2525 122.726 27.8302 122.904 27.338L123.39 26.3083L116.16 8.2159H121.315L125.887 20.9194L130.006 8.2159H135L127.346 28.7469Z" fill="#06335B"/>
<path d="M3.9514 1.20332C4.73291 1.20332 5.49687 1.44877 6.14667 1.90862C6.79648 2.36847 7.30294 3.02208 7.60201 3.78679C7.90108 4.55149 7.97933 5.39296 7.82687 6.20477C7.6744 7.01658 7.29807 7.76227 6.74545 8.34755C6.19284 8.93284 5.48877 9.33142 4.72227 9.4929C3.95578 9.65438 3.16129 9.5715 2.43926 9.25475C1.71724 8.93799 1.10012 8.40159 0.66593 7.71337C0.231745 7.02516 0 6.21603 0 5.38832C0 4.27839 0.416307 3.21392 1.15734 2.42908C1.89837 1.64424 2.90342 1.20332 3.9514 1.20332Z" fill="#57CC99"/>
</svg>
